<?xml version="1.0" encoding="utf-8"?>
<!-- Generator: Adobe Illustrator 19.0.0, SVG Export Plug-In . SVG Version: 6.00 Build 0)  -->
<svg version="1.1" id="Camada_1" xmlns="http://www.w3.org/2000/svg" xmlns:xlink="http://www.w3.org/1999/xlink" x="0px" y="0px"
	 viewBox="0 0 484 270" style="enable-background:new 0 0 484 270;" xml:space="preserve">
<style type="text/css">
	.st0{fill-rule:evenodd;clip-rule:evenodd;fill:#004282;}
</style>
<g>
	<path class="st0" d="M474.3,81.5V66.3c0-36.9-10.1-60-68.6-59.7c-41.4,0.1-68.5,12-68.5,57v74.8c0,37.5,24,57.8,65,58.2
		c43.7,0.6,72.8-9.6,72.8-58.2V116h-55.6v16.5l0,0c0,11.2-0.3,31.2-13.5,31.2c-10,0-14.9-8.5-14.9-17.3V56.6
		c0-7.6,0.9-15.4,11.6-16.2c0,0,2.6-0.3,3.8,0c13,2.6,11.8,14,11.8,29.9l0,0v11.3H474.3L474.3,81.5L474.3,81.5z M201.6,196.6V67.8
		l24.7,128.7h35L284,66.1l0.1,130.4h43.2V6.6h-66.5L243.2,78L223.2,6.6h-65v190H201.6L201.6,196.6L201.6,196.6z M76.9,196.6
		c38.1,0,68.1-13.5,68.1-55.4V6.6H88v134.5c0,7.7-1.5,22.2-10.1,22.2c-9.5,0-9.1-16.7-9.1-22.2V6.6H9v134.5
		C9,179,33.7,196.6,76.9,196.6z"/>
	<path class="st0" d="M54.3,222.5c-0.6,0-1.4,0.1-2.4,0.4c-1.1,0.2-1.9,0.5-2.6,1c-0.7,0.5-1.1,1.4-1.4,2.8
		c-0.3,1.4-0.4,3.2-0.4,5.2v18.3c0,2.3-0.5,4.4-1.4,6.1c-1,1.7-2.2,3.1-3.8,4.2c-1.6,1.1-3.2,1.8-4.9,2.3c-1.7,0.5-3.4,0.7-5,0.7
		c-2.5,0-4.8-0.3-6.8-1c-2-0.7-3.6-1.6-5-2.7c-1.3-1.1-2.3-2.4-3-3.9c-0.7-1.4-1-3-1-4.5v-24.8c0-0.7-0.1-1.3-0.3-1.7
		c-0.2-0.5-0.7-0.9-1.4-1.3c-0.5-0.3-1.1-0.5-1.9-0.7c-0.8-0.2-1.4-0.3-1.9-0.3v-2.1h17.5v2.1c-0.5,0-1.2,0.1-2.1,0.3
		c-0.8,0.2-1.4,0.3-1.8,0.4c-0.7,0.2-1.1,0.6-1.3,1.2c-0.2,0.6-0.3,1.2-0.3,1.8v23.2c0,1.1,0.1,2.3,0.4,3.5c0.2,1.2,0.7,2.4,1.5,3.4
		c0.8,1.1,1.8,2,3.2,2.7c1.3,0.7,3.2,1,5.5,1c2.2,0,4-0.3,5.5-1c1.5-0.7,2.6-1.6,3.5-2.7c0.8-1.1,1.4-2.2,1.7-3.3
		c0.3-1.2,0.5-2.3,0.5-3.5v-17.2c0-2.2-0.2-4-0.5-5.4c-0.3-1.4-0.8-2.3-1.4-2.7c-0.7-0.5-1.6-0.9-2.8-1.2c-1.2-0.3-2.1-0.4-2.7-0.5
		v-2.1h17.1V222.5L54.3,222.5z M100.8,222.5c-0.6,0-1.4,0.2-2.5,0.5c-1.1,0.3-2,0.6-2.5,0.9c-0.7,0.5-1.2,1.4-1.4,2.8
		c-0.3,1.4-0.4,3.2-0.4,5.3v30.8h-2.6L66,228.4v21.7c0,2.4,0.2,4.3,0.5,5.6c0.3,1.3,0.8,2.2,1.4,2.8c0.5,0.4,1.4,0.8,2.8,1.2
		c1.4,0.4,2.4,0.6,2.8,0.6v2.1H56.3v-2.1c0.5,0,1.4-0.2,2.7-0.6c1.3-0.3,2.1-0.7,2.4-0.9c0.7-0.6,1.2-1.4,1.4-2.5
		c0.3-1.1,0.4-3.1,0.4-5.8v-20.7c0-0.9-0.2-1.8-0.5-2.7c-0.3-0.9-0.7-1.6-1.3-2.1c-0.7-0.6-1.7-1.2-2.9-1.7c-1.2-0.5-2.2-0.7-3-0.8
		v-2.1h12l23.6,32v-20c0-2.4-0.2-4.3-0.5-5.6c-0.3-1.3-0.8-2.2-1.4-2.6c-0.6-0.4-1.5-0.7-2.7-1.1c-1.3-0.4-2.2-0.5-2.9-0.6v-2.1h17
		V222.5L100.8,222.5z M122.6,262.4h-18.9v-2.1c0.5,0,1.3-0.1,2.3-0.2c1-0.1,1.7-0.2,2.1-0.4c0.7-0.3,1.1-0.6,1.4-1.1
		c0.3-0.4,0.4-1.1,0.4-1.8v-30.4c0-0.7-0.1-1.3-0.3-1.7c-0.2-0.5-0.7-0.8-1.5-1.2c-0.6-0.2-1.3-0.5-2.2-0.7
		c-0.9-0.2-1.6-0.3-2.2-0.4v-2.1h18.9v2.1c-0.6,0-1.3,0.1-2.2,0.2c-0.8,0.1-1.6,0.3-2.2,0.5c-0.8,0.2-1.3,0.6-1.5,1.2
		c-0.3,0.5-0.4,1.1-0.4,1.8v30.4c0,0.7,0.1,1.2,0.4,1.7c0.3,0.5,0.8,0.9,1.5,1.2c0.4,0.2,1.1,0.3,2,0.5c0.9,0.2,1.7,0.3,2.4,0.3
		V262.4L122.6,262.4z M166.7,222.5c-0.5,0-1.1,0.1-1.9,0.3c-0.7,0.2-1.3,0.5-1.8,0.7c-0.7,0.4-1.2,1-1.6,1.6
		c-0.4,0.6-0.8,1.4-1.2,2.3c-1.3,3.1-3.3,8-6,14.7c-2.6,6.6-5.4,13.6-8.2,20.8h-2.5c-2.9-7.6-5.6-15-8.2-22.1
		c-2.6-7.1-4.4-11.9-5.4-14.4c-0.2-0.6-0.6-1.2-1-1.6c-0.4-0.5-0.9-0.9-1.6-1.3c-0.5-0.3-1.1-0.6-1.8-0.7c-0.6-0.2-1.3-0.3-1.8-0.3
		v-2.1h17.3v2.1c-1.5,0.1-2.7,0.2-3.7,0.4c-1,0.2-1.5,0.6-1.5,1.2c0,0.2,0,0.5,0.1,0.8c0.1,0.3,0.2,0.5,0.2,0.7
		c0.7,1.9,1.9,5.1,3.6,9.5c1.7,4.4,4,10.7,7,18.8c1.5-3.7,3.3-8,5.2-13c2-5,3.3-8.5,4-10.3c0.7-1.8,1-3.1,1.2-3.8
		c0.1-0.7,0.2-1.3,0.2-1.7c0-0.5-0.2-0.8-0.6-1.1c-0.4-0.3-1-0.6-1.6-0.8c-0.6-0.2-1.3-0.3-2-0.4c-0.7-0.1-1.4-0.2-2-0.2v-2.1h15.6
		V222.5L166.7,222.5z M203.6,250l-0.8,12.4H168v-2.1c0.6,0,1.4-0.1,2.4-0.3c1-0.1,1.6-0.3,1.9-0.4c0.6-0.3,1.1-0.7,1.3-1.2
		c0.3-0.5,0.4-1.1,0.4-1.8v-30.2c0-0.6-0.1-1.2-0.3-1.7c-0.2-0.5-0.7-0.9-1.4-1.2c-0.5-0.3-1.3-0.5-2.2-0.7
		c-0.9-0.2-1.6-0.3-2.2-0.4v-2.1h32.5v10.1h-2.2c-0.4-1.5-1.2-3.1-2.6-4.8c-1.3-1.7-2.5-2.6-3.7-2.8c-0.6-0.1-1.3-0.1-2.2-0.2
		c-0.8,0-1.8-0.1-2.9-0.1h-6.6v16.7h4.7c1.5,0,2.6-0.1,3.3-0.4c0.7-0.3,1.3-0.8,1.8-1.4c0.4-0.6,0.8-1.3,1.1-2.3
		c0.3-1,0.5-1.9,0.6-2.7h2.2V249h-2.2c-0.1-1-0.3-2-0.6-3c-0.3-1.1-0.7-1.8-1.1-2.3c-0.6-0.8-1.3-1.3-2.1-1.5
		c-0.8-0.2-1.8-0.4-3.1-0.4h-4.7v12.6c0,1.3,0.1,2.3,0.3,3c0.2,0.7,0.5,1.3,1,1.7c0.5,0.4,1.2,0.6,2.1,0.7c0.9,0.1,2.2,0.2,3.8,0.2
		c0.6,0,1.5,0,2.6,0c1.1,0,2,0,2.7-0.1c0.7-0.1,1.5-0.2,2.3-0.4c0.8-0.2,1.4-0.5,1.7-0.8c0.9-0.9,1.9-2.4,2.9-4.3
		c1-1.9,1.6-3.3,1.9-4.2H203.6L203.6,250z M248.9,262.4h-11.3c-2.5-3.9-4.8-7.3-6.8-10.2c-2-2.9-4.2-5.8-6.6-8.9h-4.3v13.3
		c0,0.7,0.1,1.3,0.3,1.8c0.2,0.5,0.7,0.9,1.4,1.2c0.4,0.1,1,0.3,1.9,0.4c0.9,0.1,1.6,0.2,2.2,0.2v2.1H208v-2.1c0.5,0,1.2-0.1,2-0.2
		c0.9-0.1,1.5-0.2,1.9-0.4c0.6-0.3,1-0.6,1.3-1.1c0.3-0.5,0.4-1.1,0.4-1.9v-30.4c0-0.7-0.1-1.3-0.3-1.8c-0.2-0.5-0.7-0.9-1.4-1.2
		c-0.5-0.2-1.1-0.3-1.9-0.5c-0.8-0.2-1.5-0.2-2-0.3v-2.1h19.4c1.8,0,3.4,0.2,5,0.5c1.6,0.4,3,1,4.2,1.8c1.2,0.8,2.2,1.8,2.9,3.1
		c0.7,1.3,1.1,2.8,1.1,4.6c0,1.6-0.2,3.1-0.7,4.3c-0.5,1.2-1.2,2.3-2.2,3.2c-0.9,0.8-2,1.6-3.2,2.2c-1.2,0.6-2.6,1.2-4.1,1.6
		c2.1,2.7,3.8,5.1,5.2,6.9c1.4,1.9,3.1,4.2,5.1,6.8c0.9,1.2,1.6,2.1,2.4,2.6c0.7,0.6,1.4,1,2.1,1.4c0.5,0.3,1.2,0.4,1.9,0.6
		c0.8,0.1,1.4,0.2,1.9,0.2V262.4L248.9,262.4z M233.3,231c0-2.5-0.7-4.6-2.2-6c-1.5-1.5-3.5-2.2-6.2-2.2h-5v18h3.9
		c2.7,0,5-0.9,6.8-2.6C232.4,236.4,233.3,234,233.3,231L233.3,231z M276.7,243.1c0.9,1,1.5,2.1,2,3.2c0.4,1.2,0.6,2.5,0.6,4.1
		c0,3.7-1.4,6.8-4.1,9.2c-2.7,2.4-6.1,3.6-10.2,3.6c-1.9,0-3.8-0.3-5.6-0.9c-1.9-0.6-3.5-1.3-4.9-2.1l-1.3,2.2h-2.4l-0.4-14.4h2.4
		c0.5,1.8,1.1,3.4,1.7,4.8c0.7,1.4,1.5,2.8,2.6,4c1,1.2,2.2,2.1,3.6,2.8c1.4,0.7,3,1,4.8,1c1.4,0,2.5-0.2,3.6-0.5
		c1-0.4,1.8-0.8,2.5-1.5c0.6-0.6,1.1-1.4,1.4-2.3c0.3-0.9,0.5-1.9,0.5-3c0-1.7-0.5-3.2-1.4-4.7c-1-1.4-2.4-2.5-4.2-3.3
		c-1.3-0.5-2.7-1.1-4.4-1.7c-1.7-0.6-3.1-1.2-4.3-1.8c-2.4-1.1-4.2-2.5-5.5-4.2c-1.3-1.7-2-4-2-6.8c0-1.6,0.3-3.1,1-4.5
		c0.6-1.4,1.6-2.6,2.8-3.7c1.1-1,2.5-1.8,4.1-2.4c1.6-0.6,3.2-0.9,4.9-0.9c1.9,0,3.7,0.3,5.2,0.9c1.5,0.6,2.9,1.3,4.2,2.1l1.2-2h2.4
		l0.2,14h-2.4c-0.4-1.6-0.9-3.1-1.5-4.6c-0.5-1.5-1.2-2.8-2.1-4c-0.8-1.1-1.9-2.1-3.1-2.7c-1.2-0.7-2.7-1-4.5-1
		c-1.9,0-3.5,0.6-4.8,1.8c-1.3,1.2-2,2.7-2,4.4c0,1.8,0.4,3.3,1.3,4.5c0.8,1.2,2.1,2.2,3.7,2.9c1.4,0.7,2.9,1.3,4.2,1.8
		c1.4,0.5,2.7,1.1,4,1.6c1.2,0.5,2.3,1.1,3.4,1.7C274.9,241.4,275.8,242.2,276.7,243.1L276.7,243.1z M302.9,262.4H284v-2.1
		c0.5,0,1.3-0.1,2.3-0.2c1-0.1,1.7-0.2,2.1-0.4c0.7-0.3,1.1-0.6,1.4-1.1c0.3-0.4,0.4-1.1,0.4-1.8v-30.4c0-0.7-0.1-1.3-0.3-1.7
		c-0.2-0.5-0.7-0.8-1.5-1.2c-0.6-0.2-1.3-0.5-2.2-0.7c-0.9-0.2-1.6-0.3-2.2-0.4v-2.1h18.9v2.1c-0.6,0-1.3,0.1-2.2,0.2
		c-0.8,0.1-1.6,0.3-2.2,0.5c-0.8,0.2-1.3,0.6-1.5,1.2c-0.3,0.5-0.4,1.1-0.4,1.8v30.4c0,0.7,0.1,1.2,0.4,1.7c0.3,0.5,0.8,0.9,1.5,1.2
		c0.4,0.2,1.1,0.3,2,0.5c0.9,0.2,1.7,0.3,2.4,0.3V262.4L302.9,262.4z M348.4,241.6c0,3.6-0.7,6.7-2,9.3c-1.3,2.6-3.1,4.8-5.2,6.5
		c-2.2,1.7-4.6,2.9-7.3,3.8c-2.7,0.8-5.5,1.2-8.4,1.2h-17.4v-2.1c0.6,0,1.3-0.1,2.2-0.2c0.9-0.1,1.5-0.2,1.8-0.4
		c0.6-0.3,1-0.6,1.3-1.1c0.3-0.5,0.4-1.1,0.4-1.8v-30.3c0-0.7-0.1-1.3-0.3-1.8c-0.2-0.5-0.7-1-1.4-1.3c-0.6-0.3-1.3-0.5-2-0.7
		c-0.7-0.1-1.3-0.2-1.9-0.3v-2.1h18.4c2.5,0,5,0.4,7.5,1.2c2.4,0.8,4.6,1.8,6.4,3.2c2.5,1.8,4.4,4.1,5.8,6.9
		C347.7,234.4,348.4,237.8,348.4,241.6L348.4,241.6z M341.1,241.6c0-2.8-0.4-5.4-1.1-7.7c-0.7-2.3-1.8-4.3-3.3-6
		c-1.4-1.6-3-2.9-5-3.8c-2-0.9-4.2-1.4-6.6-1.4c-0.8,0-1.7,0-2.7,0c-1,0-1.8,0.1-2.3,0.1v32.3c0,1.8,0.5,3,1.6,3.7
		c1,0.7,2.6,1,4.8,1c2.5,0,4.7-0.4,6.6-1.3c1.9-0.9,3.4-2.1,4.5-3.7c1.2-1.7,2.1-3.6,2.7-5.8C340.8,247,341.1,244.4,341.1,241.6
		L341.1,241.6z M392.8,262.4h-17.5v-2.1c1.5-0.1,2.8-0.3,3.8-0.6c1-0.3,1.5-0.7,1.5-1.1c0-0.2,0-0.4-0.1-0.6c0-0.3-0.1-0.5-0.2-0.7
		l-3.5-9.4h-14.7c-0.6,1.4-1,2.6-1.4,3.6c-0.3,1-0.7,2-0.9,2.8c-0.3,0.8-0.4,1.5-0.5,2.1c-0.1,0.5-0.2,1-0.2,1.3
		c0,0.8,0.6,1.4,1.9,1.8c1.2,0.4,2.6,0.7,4.2,0.8v2.1h-15.8v-2.1c0.5,0,1.2-0.2,1.9-0.3c0.8-0.2,1.4-0.4,1.9-0.7
		c0.8-0.5,1.4-1.1,1.8-1.7c0.4-0.6,0.9-1.4,1.3-2.4c2.1-5.3,4.4-11.2,7-17.8c2.5-6.6,4.8-12.4,6.8-17.6h2.4l14,36.3
		c0.3,0.8,0.6,1.4,1,1.9c0.4,0.5,0.9,0.9,1.6,1.4c0.4,0.3,1,0.5,1.8,0.7c0.7,0.2,1.3,0.3,1.8,0.3V262.4L392.8,262.4z M375.9,245.2
		l-6.4-16.3l-6.3,16.3H375.9L375.9,245.2z M434.5,241.6c0,3.6-0.7,6.7-2,9.3c-1.3,2.6-3.1,4.8-5.2,6.5c-2.2,1.7-4.6,2.9-7.3,3.8
		c-2.7,0.8-5.5,1.2-8.4,1.2h-17.4v-2.1c0.6,0,1.3-0.1,2.2-0.2c0.9-0.1,1.5-0.2,1.8-0.4c0.6-0.3,1-0.6,1.3-1.1
		c0.3-0.5,0.4-1.1,0.4-1.8v-30.3c0-0.7-0.1-1.3-0.3-1.8c-0.2-0.5-0.7-1-1.4-1.3c-0.6-0.3-1.3-0.5-2-0.7c-0.7-0.1-1.3-0.2-1.9-0.3
		v-2.1h18.4c2.5,0,5,0.4,7.5,1.2c2.4,0.8,4.6,1.8,6.4,3.2c2.5,1.8,4.4,4.1,5.8,6.9C433.8,234.4,434.5,237.8,434.5,241.6L434.5,241.6
		z M427.2,241.6c0-2.8-0.4-5.4-1.1-7.7c-0.7-2.3-1.8-4.3-3.3-6c-1.4-1.6-3-2.9-5-3.8c-2-0.9-4.2-1.4-6.6-1.4c-0.8,0-1.7,0-2.7,0
		c-1,0-1.8,0.1-2.3,0.1v32.3c0,1.8,0.5,3,1.6,3.7c1,0.7,2.6,1,4.8,1c2.5,0,4.7-0.4,6.6-1.3c1.9-0.9,3.4-2.1,4.5-3.7
		c1.2-1.7,2.1-3.6,2.7-5.8C426.9,247,427.2,244.4,427.2,241.6L427.2,241.6z M475,250l-0.8,12.4h-34.9v-2.1c0.6,0,1.4-0.1,2.4-0.3
		c1-0.1,1.6-0.3,1.9-0.4c0.6-0.3,1.1-0.7,1.3-1.2c0.3-0.5,0.4-1.1,0.4-1.8v-30.2c0-0.6-0.1-1.2-0.3-1.7c-0.2-0.5-0.7-0.9-1.4-1.2
		c-0.5-0.3-1.3-0.5-2.2-0.7c-0.9-0.2-1.6-0.3-2.2-0.4v-2.1h32.5v10.1h-2.2c-0.4-1.5-1.2-3.1-2.6-4.8c-1.3-1.7-2.5-2.6-3.7-2.8
		c-0.6-0.1-1.3-0.1-2.2-0.2c-0.8,0-1.8-0.1-2.9-0.1h-6.6v16.7h4.7c1.5,0,2.6-0.1,3.3-0.4c0.7-0.3,1.3-0.8,1.8-1.4
		c0.4-0.6,0.8-1.3,1.1-2.3c0.3-1,0.5-1.9,0.6-2.7h2.2V249h-2.2c-0.1-1-0.3-2-0.6-3c-0.3-1.1-0.7-1.8-1.1-2.3
		c-0.6-0.8-1.3-1.3-2.1-1.5c-0.8-0.2-1.8-0.4-3.1-0.4h-4.7v12.6c0,1.3,0.1,2.3,0.3,3c0.2,0.7,0.5,1.3,1,1.7c0.5,0.4,1.2,0.6,2.1,0.7
		c0.9,0.1,2.2,0.2,3.8,0.2c0.6,0,1.5,0,2.6,0c1.1,0,2,0,2.7-0.1c0.7-0.1,1.5-0.2,2.3-0.4c0.8-0.2,1.4-0.5,1.7-0.8
		c0.9-0.9,1.9-2.4,2.9-4.3c1-1.9,1.6-3.3,1.9-4.2H475z"/>
</g>
</svg>
